<svg width="166" height="44" viewBox="0 0 166 44" fill="none" xmlns="http://www.w3.org/2000/svg">
<g clip-path="url(#clip0)">
<path d="M60.5121 36.0002H53.2161V12.1442H60.2721V14.8802C60.5921 14.3042 61.0081 13.8082 61.5201 13.3922C62.0321 12.9762 62.5761 12.6402 63.1521 12.3842C63.7601 12.0962 64.3841 11.8882 65.0241 11.7602C65.6961 11.6002 66.3361 11.5202 66.9441 11.5202C68.4481 11.5202 69.7441 11.7762 70.8321 12.2882C71.9201 12.7682 72.8161 13.4402 73.5201 14.3042C74.2561 15.1682 74.7841 16.1762 75.1041 17.3282C75.4561 18.4802 75.6321 19.7122 75.6321 21.0242V36.0002H68.3361V22.2722C68.3361 21.0882 68.0161 20.1122 67.3761 19.3442C66.7681 18.5442 65.7921 18.1442 64.4481 18.1442C63.2321 18.1442 62.2721 18.5442 61.5681 19.3442C60.8641 20.1122 60.5121 21.1042 60.5121 22.3202V36.0002Z" fill="black"/>
<path d="M92.7069 30.0002C93.4109 30.0002 94.0829 29.8882 94.7229 29.6642C95.3629 29.4082 95.9229 29.0402 96.4029 28.5602C96.9149 28.0482 97.3149 27.4242 97.6029 26.6882C97.9229 25.9522 98.0829 25.0722 98.0829 24.0482C98.0829 23.0562 97.9229 22.1922 97.6029 21.4562C97.3149 20.6882 96.9149 20.0642 96.4029 19.5842C95.9229 19.1042 95.3629 18.7522 94.7229 18.5282C94.0829 18.2722 93.4109 18.1442 92.7069 18.1442C92.0349 18.1442 91.3629 18.2722 90.6909 18.5282C90.0509 18.7522 89.4749 19.1042 88.9629 19.5842C88.4829 20.0642 88.0829 20.6882 87.7629 21.4562C87.4749 22.1922 87.3309 23.0562 87.3309 24.0482C87.3309 25.0402 87.4749 25.9202 87.7629 26.6882C88.0829 27.4242 88.4829 28.0482 88.9629 28.5602C89.4749 29.0402 90.0509 29.4082 90.6909 29.6642C91.3629 29.8882 92.0349 30.0002 92.7069 30.0002ZM92.7069 11.4242C94.4989 11.4242 96.1629 11.7442 97.6989 12.3842C99.2349 12.9922 100.563 13.8562 101.683 14.9762C102.835 16.0962 103.731 17.4242 104.371 18.9602C105.043 20.4962 105.379 22.1922 105.379 24.0482C105.379 25.9042 105.043 27.6162 104.371 29.1842C103.731 30.7202 102.835 32.0482 101.683 33.1682C100.563 34.2882 99.2349 35.1682 97.6989 35.8082C96.1629 36.4162 94.4989 36.7202 92.7069 36.7202C90.9149 36.7202 89.2509 36.4162 87.7149 35.8082C86.1789 35.1682 84.8349 34.2882 83.6829 33.1682C82.5629 32.0482 81.6669 30.7202 80.9949 29.1842C80.3549 27.6162 80.0349 25.9042 80.0349 24.0482C80.0349 22.1922 80.3549 20.4962 80.9949 18.9602C81.6669 17.4242 82.5629 16.0962 83.6829 14.9762C84.8349 13.8562 86.1789 12.9922 87.7149 12.3842C89.2509 11.7442 90.9149 11.4242 92.7069 11.4242Z" fill="black"/>
<path d="M110.075 36.0002V12.1442H117.371V36.0002H110.075ZM109.451 4.84817C109.451 4.27217 109.563 3.72817 109.787 3.21617C110.011 2.67217 110.315 2.20817 110.699 1.82417C111.083 1.44017 111.531 1.13617 112.043 0.912173C112.555 0.688172 113.099 0.576172 113.675 0.576172C114.891 0.576172 115.915 0.992172 116.747 1.82417C117.579 2.65617 117.995 3.66417 117.995 4.84817C117.995 6.03217 117.579 7.04017 116.747 7.87217C115.915 8.70417 114.891 9.12017 113.675 9.12017C113.099 9.12017 112.555 9.00817 112.043 8.78417C111.531 8.56017 111.083 8.25617 110.699 7.87217C110.315 7.48817 110.011 7.04017 109.787 6.52817C109.563 5.98417 109.451 5.42417 109.451 4.84817Z" fill="black"/>
<path d="M138.931 19.3442C138.515 19.2482 138.115 19.1842 137.731 19.1522C137.347 19.1202 136.979 19.1042 136.627 19.1042C135.891 19.1042 135.187 19.2162 134.515 19.4402C133.843 19.6642 133.251 20.0322 132.739 20.5442C132.227 21.0562 131.811 21.7282 131.491 22.5602C131.203 23.3922 131.059 24.4002 131.059 25.5842V36.0002H123.763V12.1442H130.819V15.3602C131.139 14.6882 131.539 14.1282 132.019 13.6802C132.531 13.2322 133.075 12.8802 133.651 12.6242C134.227 12.3682 134.803 12.1922 135.379 12.0962C135.987 11.9682 136.531 11.9042 137.011 11.9042C137.747 11.9042 138.387 11.9842 138.931 12.1442V19.3442Z" fill="black"/>
<path d="M158.147 21.2162C158.115 20.7682 158.003 20.3042 157.811 19.8242C157.651 19.3442 157.379 18.9122 156.995 18.5282C156.611 18.1442 156.115 17.8242 155.507 17.5682C154.931 17.3122 154.211 17.1842 153.347 17.1842C152.579 17.1842 151.907 17.3122 151.331 17.5682C150.755 17.8242 150.259 18.1442 149.843 18.5282C149.459 18.9122 149.155 19.3442 148.931 19.8242C148.739 20.3042 148.627 20.7682 148.595 21.2162H158.147ZM164.771 29.1362C164.483 30.1602 164.035 31.1362 163.427 32.0642C162.819 32.9922 162.051 33.8082 161.123 34.5122C160.195 35.1842 159.107 35.7122 157.859 36.0962C156.643 36.5122 155.283 36.7202 153.779 36.7202C152.147 36.7202 150.579 36.4322 149.075 35.8562C147.571 35.2802 146.243 34.4482 145.091 33.3602C143.939 32.2722 143.027 30.9442 142.355 29.3762C141.683 27.8082 141.347 26.0162 141.347 24.0002C141.347 22.0802 141.667 20.3522 142.307 18.8162C142.979 17.2482 143.859 15.9202 144.947 14.8322C146.067 13.7442 147.347 12.9122 148.787 12.3362C150.227 11.7282 151.715 11.4242 153.251 11.4242C156.963 11.4242 159.875 12.4962 161.987 14.6402C164.131 16.7842 165.203 19.7922 165.203 23.6642C165.203 24.1762 165.187 24.6722 165.155 25.1522C165.123 25.6002 165.091 25.8562 165.059 25.9202H148.451C148.483 26.5922 148.643 27.2162 148.931 27.7922C149.251 28.3362 149.651 28.8162 150.131 29.2322C150.643 29.6482 151.219 29.9682 151.859 30.1922C152.499 30.4162 153.171 30.5282 153.875 30.5282C155.219 30.5282 156.259 30.2402 156.995 29.6642C157.763 29.0882 158.323 28.3362 158.675 27.4082L164.771 29.1362Z" fill="black"/>
<path fill-rule="evenodd" clip-rule="evenodd" d="M10.0048 6.68629C0.440592 12.2082 -2.83637 24.438 2.68556 34.0022C8.20748 43.5665 20.4372 46.8434 30.0015 41.3215C39.5658 35.7996 42.8427 23.5698 37.3208 14.0056C31.7989 4.44132 19.5691 1.16436 10.0048 6.68629ZM8.45807 30.67C4.91667 24.5361 6.80387 16.7577 12.629 12.8981L25.9345 35.9439C19.6794 39.0588 11.9995 36.8039 8.45807 30.67Z" fill="black"/>
</g>
<defs>
<clipPath id="clip0">
<rect width="166" height="44" fill="white"/>
</clipPath>
</defs>
</svg>
